<svg xmlns="http://www.w3.org/2000/svg" width="450" height="300" viewBox="0 0 450 300"><text x="15" y="130" fill="#000" dy=".76em" font-family="sans-serif" font-size="9.677" opacity="1" text-anchor="middle" transform="rotate(270, 15, 130)">Total sample time (ms)</text><text x="255" y="285" fill="#000" dy="-.5ex" font-family="sans-serif" font-size="9.677" opacity="1" text-anchor="middle">Iterations (x 10^3)</text><line x1="75" x2="75" y1="244" y2="15" stroke="#000" stroke-width="1" opacity=".2"/><line x1="144" x2="144" y1="244" y2="15" stroke="#000" stroke-width="1" opacity=".2"/><line x1="213" x2="213" y1="244" y2="15" stroke="#000" stroke-width="1" opacity=".2"/><line x1="282" x2="282" y1="244" y2="15" stroke="#000" stroke-width="1" opacity=".2"/><line x1="351" x2="351" y1="244" y2="15" stroke="#000" stroke-width="1" opacity=".2"/><line x1="420" x2="420" y1="244" y2="15" stroke="#000" stroke-width="1" opacity=".2"/><line x1="75" x2="434" y1="244" y2="244" stroke="#000" stroke-width="1" opacity=".2"/><line x1="75" x2="434" y1="221" y2="221" stroke="#000" stroke-width="1" opacity=".2"/><line x1="75" x2="434" y1="197" y2="197" stroke="#000" stroke-width="1" opacity=".2"/><line x1="75" x2="434" y1="174" y2="174" stroke="#000" stroke-width="1" opacity=".2"/><line x1="75" x2="434" y1="150" y2="150" stroke="#000" stroke-width="1" opacity=".2"/><line x1="75" x2="434" y1="127" y2="127" stroke="#000" stroke-width="1" opacity=".2"/><line x1="75" x2="434" y1="103" y2="103" stroke="#000" stroke-width="1" opacity=".2"/><line x1="75" x2="434" y1="80" y2="80" stroke="#000" stroke-width="1" opacity=".2"/><line x1="75" x2="434" y1="56" y2="56" stroke="#000" stroke-width="1" opacity=".2"/><line x1="75" x2="434" y1="33" y2="33" stroke="#000" stroke-width="1" opacity=".2"/><polyline fill="none" stroke="#000" stroke-width="1" points="74 15 74 244" opacity="1"/><text x="65" y="244" fill="#000" dy=".5ex" font-family="sans-serif" font-size="9.677" opacity="1" text-anchor="end">0.0</text><polyline fill="none" stroke="#000" stroke-width="1" points="69 244 74 244" opacity="1"/><text x="65" y="221" fill="#000" dy=".5ex" font-family="sans-serif" font-size="9.677" opacity="1" text-anchor="end">10.0</text><polyline fill="none" stroke="#000" stroke-width="1" points="69 221 74 221" opacity="1"/><text x="65" y="197" fill="#000" dy=".5ex" font-family="sans-serif" font-size="9.677" opacity="1" text-anchor="end">20.0</text><polyline fill="none" stroke="#000" stroke-width="1" points="69 197 74 197" opacity="1"/><text x="65" y="174" fill="#000" dy=".5ex" font-family="sans-serif" font-size="9.677" opacity="1" text-anchor="end">30.0</text><polyline fill="none" stroke="#000" stroke-width="1" points="69 174 74 174" opacity="1"/><text x="65" y="150" fill="#000" dy=".5ex" font-family="sans-serif" font-size="9.677" opacity="1" text-anchor="end">40.0</text><polyline fill="none" stroke="#000" stroke-width="1" points="69 150 74 150" opacity="1"/><text x="65" y="127" fill="#000" dy=".5ex" font-family="sans-serif" font-size="9.677" opacity="1" text-anchor="end">50.0</text><polyline fill="none" stroke="#000" stroke-width="1" points="69 127 74 127" opacity="1"/><text x="65" y="103" fill="#000" dy=".5ex" font-family="sans-serif" font-size="9.677" opacity="1" text-anchor="end">60.0</text><polyline fill="none" stroke="#000" stroke-width="1" points="69 103 74 103" opacity="1"/><text x="65" y="80" fill="#000" dy=".5ex" font-family="sans-serif" font-size="9.677" opacity="1" text-anchor="end">70.0</text><polyline fill="none" stroke="#000" stroke-width="1" points="69 80 74 80" opacity="1"/><text x="65" y="56" fill="#000" dy=".5ex" font-family="sans-serif" font-size="9.677" opacity="1" text-anchor="end">80.0</text><polyline fill="none" stroke="#000" stroke-width="1" points="69 56 74 56" opacity="1"/><text x="65" y="33" fill="#000" dy=".5ex" font-family="sans-serif" font-size="9.677" opacity="1" text-anchor="end">90.0</text><polyline fill="none" stroke="#000" stroke-width="1" points="69 33 74 33" opacity="1"/><polyline fill="none" stroke="#000" stroke-width="1" points="75 245 434 245" opacity="1"/><text x="75" y="255" fill="#000" dy=".76em" font-family="sans-serif" font-size="9.677" opacity="1" text-anchor="middle">0</text><polyline fill="none" stroke="#000" stroke-width="1" points="75 245 75 250" opacity="1"/><text x="144" y="255" fill="#000" dy=".76em" font-family="sans-serif" font-size="9.677" opacity="1" text-anchor="middle">5</text><polyline fill="none" stroke="#000" stroke-width="1" points="144 245 144 250" opacity="1"/><text x="213" y="255" fill="#000" dy=".76em" font-family="sans-serif" font-size="9.677" opacity="1" text-anchor="middle">10</text><polyline fill="none" stroke="#000" stroke-width="1" points="213 245 213 250" opacity="1"/><text x="282" y="255" fill="#000" dy=".76em" font-family="sans-serif" font-size="9.677" opacity="1" text-anchor="middle">15</text><polyline fill="none" stroke="#000" stroke-width="1" points="282 245 282 250" opacity="1"/><text x="351" y="255" fill="#000" dy=".76em" font-family="sans-serif" font-size="9.677" opacity="1" text-anchor="middle">20</text><polyline fill="none" stroke="#000" stroke-width="1" points="351 245 351 250" opacity="1"/><text x="420" y="255" fill="#000" dy=".76em" font-family="sans-serif" font-size="9.677" opacity="1" text-anchor="middle">25</text><polyline fill="none" stroke="#000" stroke-width="1" points="420 245 420 250" opacity="1"/><polyline fill="none" stroke="#E31A1C" stroke-width="1" points="75 244 434 15" opacity="1"/><polygon fill="#E31A1C" points="75 244 434 19 434 15" opacity=".25"/><polyline fill="none" stroke="#1F78B4" stroke-width="1" points="75 244 434 22" opacity="1"/><polygon fill="#1F78B4" points="75 244 434 26 434 17" opacity=".25"/></svg>