<svg xmlns="http://www.w3.org/2000/svg" width="960" height="540" viewBox="0 0 960 540"><text x="480" y="32" fill="#000" dy=".76em" font-family="sans-serif" font-size="16.129" opacity="1" text-anchor="middle">semantic_context/graph_build_warm/large_workspace</text><text x="27" y="263" fill="#000" dy=".76em" font-family="sans-serif" font-size="9.677" opacity="1" text-anchor="middle" transform="rotate(270, 27, 263)">Total sample time (s)</text><text x="510" y="513" fill="#000" dy="-.5ex" font-family="sans-serif" font-size="9.677" opacity="1" text-anchor="middle">Iterations</text><line x1="127" x2="127" y1="472" y2="53" stroke="#000" stroke-width="1" opacity=".2"/><line x1="261" x2="261" y1="472" y2="53" stroke="#000" stroke-width="1" opacity=".2"/><line x1="395" x2="395" y1="472" y2="53" stroke="#000" stroke-width="1" opacity=".2"/><line x1="529" x2="529" y1="472" y2="53" stroke="#000" stroke-width="1" opacity=".2"/><line x1="663" x2="663" y1="472" y2="53" stroke="#000" stroke-width="1" opacity=".2"/><line x1="797" x2="797" y1="472" y2="53" stroke="#000" stroke-width="1" opacity=".2"/><line x1="932" x2="932" y1="472" y2="53" stroke="#000" stroke-width="1" opacity=".2"/><line x1="87" x2="932" y1="471" y2="471" stroke="#000" stroke-width="1" opacity=".2"/><line x1="87" x2="932" y1="418" y2="418" stroke="#000" stroke-width="1" opacity=".2"/><line x1="87" x2="932" y1="365" y2="365" stroke="#000" stroke-width="1" opacity=".2"/><line x1="87" x2="932" y1="313" y2="313" stroke="#000" stroke-width="1" opacity=".2"/><line x1="87" x2="932" y1="260" y2="260" stroke="#000" stroke-width="1" opacity=".2"/><line x1="87" x2="932" y1="207" y2="207" stroke="#000" stroke-width="1" opacity=".2"/><line x1="87" x2="932" y1="155" y2="155" stroke="#000" stroke-width="1" opacity=".2"/><line x1="87" x2="932" y1="102" y2="102" stroke="#000" stroke-width="1" opacity=".2"/><polyline fill="none" stroke="#000" stroke-width="1" points="86 53 86 472" opacity="1"/><text x="77" y="471" fill="#000" dy=".5ex" font-family="sans-serif" font-size="9.677" opacity="1" text-anchor="end">0.2</text><polyline fill="none" stroke="#000" stroke-width="1" points="81 471 86 471" opacity="1"/><text x="77" y="418" fill="#000" dy=".5ex" font-family="sans-serif" font-size="9.677" opacity="1" text-anchor="end">0.4</text><polyline fill="none" stroke="#000" stroke-width="1" points="81 418 86 418" opacity="1"/><text x="77" y="365" fill="#000" dy=".5ex" font-family="sans-serif" font-size="9.677" opacity="1" text-anchor="end">0.6</text><polyline fill="none" stroke="#000" stroke-width="1" points="81 365 86 365" opacity="1"/><text x="77" y="313" fill="#000" dy=".5ex" font-family="sans-serif" font-size="9.677" opacity="1" text-anchor="end">0.8</text><polyline fill="none" stroke="#000" stroke-width="1" points="81 313 86 313" opacity="1"/><text x="77" y="260" fill="#000" dy=".5ex" font-family="sans-serif" font-size="9.677" opacity="1" text-anchor="end">1.0</text><polyline fill="none" stroke="#000" stroke-width="1" points="81 260 86 260" opacity="1"/><text x="77" y="207" fill="#000" dy=".5ex" font-family="sans-serif" font-size="9.677" opacity="1" text-anchor="end">1.2</text><polyline fill="none" stroke="#000" stroke-width="1" points="81 207 86 207" opacity="1"/><text x="77" y="155" fill="#000" dy=".5ex" font-family="sans-serif" font-size="9.677" opacity="1" text-anchor="end">1.4</text><polyline fill="none" stroke="#000" stroke-width="1" points="81 155 86 155" opacity="1"/><text x="77" y="102" fill="#000" dy=".5ex" font-family="sans-serif" font-size="9.677" opacity="1" text-anchor="end">1.6</text><polyline fill="none" stroke="#000" stroke-width="1" points="81 102 86 102" opacity="1"/><polyline fill="none" stroke="#000" stroke-width="1" points="87 473 932 473" opacity="1"/><text x="127" y="483" fill="#000" dy=".76em" font-family="sans-serif" font-size="9.677" opacity="1" text-anchor="middle">50</text><polyline fill="none" stroke="#000" stroke-width="1" points="127 473 127 478" opacity="1"/><text x="261" y="483" fill="#000" dy=".76em" font-family="sans-serif" font-size="9.677" opacity="1" text-anchor="middle">100</text><polyline fill="none" stroke="#000" stroke-width="1" points="261 473 261 478" opacity="1"/><text x="395" y="483" fill="#000" dy=".76em" font-family="sans-serif" font-size="9.677" opacity="1" text-anchor="middle">150</text><polyline fill="none" stroke="#000" stroke-width="1" points="395 473 395 478" opacity="1"/><text x="529" y="483" fill="#000" dy=".76em" font-family="sans-serif" font-size="9.677" opacity="1" text-anchor="middle">200</text><polyline fill="none" stroke="#000" stroke-width="1" points="529 473 529 478" opacity="1"/><text x="663" y="483" fill="#000" dy=".76em" font-family="sans-serif" font-size="9.677" opacity="1" text-anchor="middle">250</text><polyline fill="none" stroke="#000" stroke-width="1" points="663 473 663 478" opacity="1"/><text x="797" y="483" fill="#000" dy=".76em" font-family="sans-serif" font-size="9.677" opacity="1" text-anchor="middle">300</text><polyline fill="none" stroke="#000" stroke-width="1" points="797 473 797 478" opacity="1"/><text x="932" y="483" fill="#000" dy=".76em" font-family="sans-serif" font-size="9.677" opacity="1" text-anchor="middle">350</text><polyline fill="none" stroke="#000" stroke-width="1" points="932 473 932 478" opacity="1"/><circle cx="87" cy="472" r="3" fill="#1F78B4" stroke="none" stroke-width="1" opacity="1"/><circle cx="180" cy="418" r="3" fill="#1F78B4" stroke="none" stroke-width="1" opacity="1"/><circle cx="274" cy="366" r="3" fill="#1F78B4" stroke="none" stroke-width="1" opacity="1"/><circle cx="368" cy="337" r="3" fill="#1F78B4" stroke="none" stroke-width="1" opacity="1"/><circle cx="462" cy="290" r="3" fill="#1F78B4" stroke="none" stroke-width="1" opacity="1"/><circle cx="556" cy="255" r="3" fill="#1F78B4" stroke="none" stroke-width="1" opacity="1"/><circle cx="650" cy="61" r="3" fill="#1F78B4" stroke="none" stroke-width="1" opacity="1"/><circle cx="744" cy="135" r="3" fill="#1F78B4" stroke="none" stroke-width="1" opacity="1"/><circle cx="838" cy="100" r="3" fill="#1F78B4" stroke="none" stroke-width="1" opacity="1"/><circle cx="932" cy="53" r="3" fill="#1F78B4" stroke="none" stroke-width="1" opacity="1"/><polyline fill="none" stroke="#1F78B4" stroke-width="1" points="87 473 932 53" opacity="1"/><polygon fill="#1F78B4" points="87 473 932 57 932 53" opacity=".25"/><text x="132" y="68" fill="#000" dy=".76em" font-family="sans-serif" font-size="9.677" opacity="1" text-anchor="start">Sample</text><text x="132" y="83" fill="#000" dy=".76em" font-family="sans-serif" font-size="9.677" opacity="1" text-anchor="start">Linear regression</text><text x="132" y="98" fill="#000" dy=".76em" font-family="sans-serif" font-size="9.677" opacity="1" text-anchor="start">Confidence interval</text><circle cx="112" cy="73" r="3" fill="#1F78B4" stroke="none" stroke-width="1" opacity="1"/><polyline fill="none" stroke="#1F78B4" stroke-width="2" points="102 88 122 88" opacity="1"/><rect width="20" height="10" x="102" y="98" fill="#1F78B4" stroke="none" opacity=".25"/></svg>