<svg xmlns="http://www.w3.org/2000/svg" width="960" height="540" viewBox="0 0 960 540"><text x="480" y="32" fill="#000" dy=".76em" font-family="sans-serif" font-size="16.129" opacity="1" text-anchor="middle">semantic_context/bundle_serialization/large_workspace</text><text x="27" y="263" fill="#000" dy=".76em" font-family="sans-serif" font-size="9.677" opacity="1" text-anchor="middle" transform="rotate(270, 27, 263)">Total sample time (s)</text><text x="510" y="513" fill="#000" dy="-.5ex" font-family="sans-serif" font-size="9.677" opacity="1" text-anchor="middle">Iterations (x 10^3)</text><line x1="87" x2="87" y1="472" y2="53" stroke="#000" stroke-width="1" opacity=".2"/><line x1="169" x2="169" y1="472" y2="53" stroke="#000" stroke-width="1" opacity=".2"/><line x1="251" x2="251" y1="472" y2="53" stroke="#000" stroke-width="1" opacity=".2"/><line x1="333" x2="333" y1="472" y2="53" stroke="#000" stroke-width="1" opacity=".2"/><line x1="415" x2="415" y1="472" y2="53" stroke="#000" stroke-width="1" opacity=".2"/><line x1="497" x2="497" y1="472" y2="53" stroke="#000" stroke-width="1" opacity=".2"/><line x1="579" x2="579" y1="472" y2="53" stroke="#000" stroke-width="1" opacity=".2"/><line x1="661" x2="661" y1="472" y2="53" stroke="#000" stroke-width="1" opacity=".2"/><line x1="743" x2="743" y1="472" y2="53" stroke="#000" stroke-width="1" opacity=".2"/><line x1="825" x2="825" y1="472" y2="53" stroke="#000" stroke-width="1" opacity=".2"/><line x1="907" x2="907" y1="472" y2="53" stroke="#000" stroke-width="1" opacity=".2"/><line x1="87" x2="932" y1="472" y2="472" stroke="#000" stroke-width="1" opacity=".2"/><line x1="87" x2="932" y1="432" y2="432" stroke="#000" stroke-width="1" opacity=".2"/><line x1="87" x2="932" y1="391" y2="391" stroke="#000" stroke-width="1" opacity=".2"/><line x1="87" x2="932" y1="350" y2="350" stroke="#000" stroke-width="1" opacity=".2"/><line x1="87" x2="932" y1="309" y2="309" stroke="#000" stroke-width="1" opacity=".2"/><line x1="87" x2="932" y1="268" y2="268" stroke="#000" stroke-width="1" opacity=".2"/><line x1="87" x2="932" y1="227" y2="227" stroke="#000" stroke-width="1" opacity=".2"/><line x1="87" x2="932" y1="186" y2="186" stroke="#000" stroke-width="1" opacity=".2"/><line x1="87" x2="932" y1="145" y2="145" stroke="#000" stroke-width="1" opacity=".2"/><line x1="87" x2="932" y1="104" y2="104" stroke="#000" stroke-width="1" opacity=".2"/><line x1="87" x2="932" y1="63" y2="63" stroke="#000" stroke-width="1" opacity=".2"/><polyline fill="none" stroke="#000" stroke-width="1" points="86 53 86 472" opacity="1"/><text x="77" y="472" fill="#000" dy=".5ex" font-family="sans-serif" font-size="9.677" opacity="1" text-anchor="end">0.0</text><polyline fill="none" stroke="#000" stroke-width="1" points="81 472 86 472" opacity="1"/><text x="77" y="432" fill="#000" dy=".5ex" font-family="sans-serif" font-size="9.677" opacity="1" text-anchor="end">0.1</text><polyline fill="none" stroke="#000" stroke-width="1" points="81 432 86 432" opacity="1"/><text x="77" y="391" fill="#000" dy=".5ex" font-family="sans-serif" font-size="9.677" opacity="1" text-anchor="end">0.2</text><polyline fill="none" stroke="#000" stroke-width="1" points="81 391 86 391" opacity="1"/><text x="77" y="350" fill="#000" dy=".5ex" font-family="sans-serif" font-size="9.677" opacity="1" text-anchor="end">0.3</text><polyline fill="none" stroke="#000" stroke-width="1" points="81 350 86 350" opacity="1"/><text x="77" y="309" fill="#000" dy=".5ex" font-family="sans-serif" font-size="9.677" opacity="1" text-anchor="end">0.4</text><polyline fill="none" stroke="#000" stroke-width="1" points="81 309 86 309" opacity="1"/><text x="77" y="268" fill="#000" dy=".5ex" font-family="sans-serif" font-size="9.677" opacity="1" text-anchor="end">0.5</text><polyline fill="none" stroke="#000" stroke-width="1" points="81 268 86 268" opacity="1"/><text x="77" y="227" fill="#000" dy=".5ex" font-family="sans-serif" font-size="9.677" opacity="1" text-anchor="end">0.6</text><polyline fill="none" stroke="#000" stroke-width="1" points="81 227 86 227" opacity="1"/><text x="77" y="186" fill="#000" dy=".5ex" font-family="sans-serif" font-size="9.677" opacity="1" text-anchor="end">0.7</text><polyline fill="none" stroke="#000" stroke-width="1" points="81 186 86 186" opacity="1"/><text x="77" y="145" fill="#000" dy=".5ex" font-family="sans-serif" font-size="9.677" opacity="1" text-anchor="end">0.8</text><polyline fill="none" stroke="#000" stroke-width="1" points="81 145 86 145" opacity="1"/><text x="77" y="104" fill="#000" dy=".5ex" font-family="sans-serif" font-size="9.677" opacity="1" text-anchor="end">0.9</text><polyline fill="none" stroke="#000" stroke-width="1" points="81 104 86 104" opacity="1"/><text x="77" y="63" fill="#000" dy=".5ex" font-family="sans-serif" font-size="9.677" opacity="1" text-anchor="end">1.0</text><polyline fill="none" stroke="#000" stroke-width="1" points="81 63 86 63" opacity="1"/><polyline fill="none" stroke="#000" stroke-width="1" points="87 473 932 473" opacity="1"/><text x="87" y="483" fill="#000" dy=".76em" font-family="sans-serif" font-size="9.677" opacity="1" text-anchor="middle">0</text><polyline fill="none" stroke="#000" stroke-width="1" points="87 473 87 478" opacity="1"/><text x="169" y="483" fill="#000" dy=".76em" font-family="sans-serif" font-size="9.677" opacity="1" text-anchor="middle">0.2</text><polyline fill="none" stroke="#000" stroke-width="1" points="169 473 169 478" opacity="1"/><text x="251" y="483" fill="#000" dy=".76em" font-family="sans-serif" font-size="9.677" opacity="1" text-anchor="middle">0.4</text><polyline fill="none" stroke="#000" stroke-width="1" points="251 473 251 478" opacity="1"/><text x="333" y="483" fill="#000" dy=".76em" font-family="sans-serif" font-size="9.677" opacity="1" text-anchor="middle">0.6</text><polyline fill="none" stroke="#000" stroke-width="1" points="333 473 333 478" opacity="1"/><text x="415" y="483" fill="#000" dy=".76em" font-family="sans-serif" font-size="9.677" opacity="1" text-anchor="middle">0.8</text><polyline fill="none" stroke="#000" stroke-width="1" points="415 473 415 478" opacity="1"/><text x="497" y="483" fill="#000" dy=".76em" font-family="sans-serif" font-size="9.677" opacity="1" text-anchor="middle">1</text><polyline fill="none" stroke="#000" stroke-width="1" points="497 473 497 478" opacity="1"/><text x="579" y="483" fill="#000" dy=".76em" font-family="sans-serif" font-size="9.677" opacity="1" text-anchor="middle">1.2</text><polyline fill="none" stroke="#000" stroke-width="1" points="579 473 579 478" opacity="1"/><text x="661" y="483" fill="#000" dy=".76em" font-family="sans-serif" font-size="9.677" opacity="1" text-anchor="middle">1.4</text><polyline fill="none" stroke="#000" stroke-width="1" points="661 473 661 478" opacity="1"/><text x="743" y="483" fill="#000" dy=".76em" font-family="sans-serif" font-size="9.677" opacity="1" text-anchor="middle">1.6</text><polyline fill="none" stroke="#000" stroke-width="1" points="743 473 743 478" opacity="1"/><text x="825" y="483" fill="#000" dy=".76em" font-family="sans-serif" font-size="9.677" opacity="1" text-anchor="middle">1.8</text><polyline fill="none" stroke="#000" stroke-width="1" points="825 473 825 478" opacity="1"/><text x="907" y="483" fill="#000" dy=".76em" font-family="sans-serif" font-size="9.677" opacity="1" text-anchor="middle">2</text><polyline fill="none" stroke="#000" stroke-width="1" points="907 473 907 478" opacity="1"/><polyline fill="none" stroke="#E31A1C" stroke-width="1" points="87 472 932 57" opacity="1"/><polygon fill="#E31A1C" points="87 472 932 66 932 53" opacity=".25"/><polyline fill="none" stroke="#1F78B4" stroke-width="1" points="87 472 932 53" opacity="1"/><polygon fill="#1F78B4" points="87 472 932 79 932 53" opacity=".25"/><text x="132" y="68" fill="#000" dy=".76em" font-family="sans-serif" font-size="9.677" opacity="1" text-anchor="start">Base Sample</text><text x="132" y="83" fill="#000" dy=".76em" font-family="sans-serif" font-size="9.677" opacity="1" text-anchor="start">New Sample</text><polyline fill="none" stroke="#E31A1C" stroke-width="2" points="102 73 122 73" opacity="1"/><polyline fill="none" stroke="#1F78B4" stroke-width="2" points="102 88 122 88" opacity="1"/></svg>