<svg xmlns="http://www.w3.org/2000/svg" width="450" height="300" viewBox="0 0 450 300"><text x="15" y="130" fill="#000" dy=".76em" font-family="sans-serif" font-size="9.677" opacity="1" text-anchor="middle" transform="rotate(270, 15, 130)">Total sample time (s)</text><text x="255" y="285" fill="#000" dy="-.5ex" font-family="sans-serif" font-size="9.677" opacity="1" text-anchor="middle">Iterations</text><line x1="84" x2="84" y1="244" y2="15" stroke="#000" stroke-width="1" opacity=".2"/><line x1="134" x2="134" y1="244" y2="15" stroke="#000" stroke-width="1" opacity=".2"/><line x1="184" x2="184" y1="244" y2="15" stroke="#000" stroke-width="1" opacity=".2"/><line x1="234" x2="234" y1="244" y2="15" stroke="#000" stroke-width="1" opacity=".2"/><line x1="284" x2="284" y1="244" y2="15" stroke="#000" stroke-width="1" opacity=".2"/><line x1="334" x2="334" y1="244" y2="15" stroke="#000" stroke-width="1" opacity=".2"/><line x1="384" x2="384" y1="244" y2="15" stroke="#000" stroke-width="1" opacity=".2"/><line x1="434" x2="434" y1="244" y2="15" stroke="#000" stroke-width="1" opacity=".2"/><line x1="75" x2="434" y1="220" y2="220" stroke="#000" stroke-width="1" opacity=".2"/><line x1="75" x2="434" y1="195" y2="195" stroke="#000" stroke-width="1" opacity=".2"/><line x1="75" x2="434" y1="170" y2="170" stroke="#000" stroke-width="1" opacity=".2"/><line x1="75" x2="434" y1="145" y2="145" stroke="#000" stroke-width="1" opacity=".2"/><line x1="75" x2="434" y1="120" y2="120" stroke="#000" stroke-width="1" opacity=".2"/><line x1="75" x2="434" y1="95" y2="95" stroke="#000" stroke-width="1" opacity=".2"/><line x1="75" x2="434" y1="70" y2="70" stroke="#000" stroke-width="1" opacity=".2"/><line x1="75" x2="434" y1="44" y2="44" stroke="#000" stroke-width="1" opacity=".2"/><line x1="75" x2="434" y1="19" y2="19" stroke="#000" stroke-width="1" opacity=".2"/><polyline fill="none" stroke="#000" stroke-width="1" points="74 15 74 244" opacity="1"/><text x="65" y="220" fill="#000" dy=".5ex" font-family="sans-serif" font-size="9.677" opacity="1" text-anchor="end">0.2</text><polyline fill="none" stroke="#000" stroke-width="1" points="69 220 74 220" opacity="1"/><text x="65" y="195" fill="#000" dy=".5ex" font-family="sans-serif" font-size="9.677" opacity="1" text-anchor="end">0.3</text><polyline fill="none" stroke="#000" stroke-width="1" points="69 195 74 195" opacity="1"/><text x="65" y="170" fill="#000" dy=".5ex" font-family="sans-serif" font-size="9.677" opacity="1" text-anchor="end">0.4</text><polyline fill="none" stroke="#000" stroke-width="1" points="69 170 74 170" opacity="1"/><text x="65" y="145" fill="#000" dy=".5ex" font-family="sans-serif" font-size="9.677" opacity="1" text-anchor="end">0.5</text><polyline fill="none" stroke="#000" stroke-width="1" points="69 145 74 145" opacity="1"/><text x="65" y="120" fill="#000" dy=".5ex" font-family="sans-serif" font-size="9.677" opacity="1" text-anchor="end">0.6</text><polyline fill="none" stroke="#000" stroke-width="1" points="69 120 74 120" opacity="1"/><text x="65" y="95" fill="#000" dy=".5ex" font-family="sans-serif" font-size="9.677" opacity="1" text-anchor="end">0.7</text><polyline fill="none" stroke="#000" stroke-width="1" points="69 95 74 95" opacity="1"/><text x="65" y="70" fill="#000" dy=".5ex" font-family="sans-serif" font-size="9.677" opacity="1" text-anchor="end">0.8</text><polyline fill="none" stroke="#000" stroke-width="1" points="69 70 74 70" opacity="1"/><text x="65" y="44" fill="#000" dy=".5ex" font-family="sans-serif" font-size="9.677" opacity="1" text-anchor="end">0.9</text><polyline fill="none" stroke="#000" stroke-width="1" points="69 44 74 44" opacity="1"/><text x="65" y="19" fill="#000" dy=".5ex" font-family="sans-serif" font-size="9.677" opacity="1" text-anchor="end">1.0</text><polyline fill="none" stroke="#000" stroke-width="1" points="69 19 74 19" opacity="1"/><polyline fill="none" stroke="#000" stroke-width="1" points="75 245 434 245" opacity="1"/><text x="84" y="255" fill="#000" dy=".76em" font-family="sans-serif" font-size="9.677" opacity="1" text-anchor="middle">10</text><polyline fill="none" stroke="#000" stroke-width="1" points="84 245 84 250" opacity="1"/><text x="134" y="255" fill="#000" dy=".76em" font-family="sans-serif" font-size="9.677" opacity="1" text-anchor="middle">20</text><polyline fill="none" stroke="#000" stroke-width="1" points="134 245 134 250" opacity="1"/><text x="184" y="255" fill="#000" dy=".76em" font-family="sans-serif" font-size="9.677" opacity="1" text-anchor="middle">30</text><polyline fill="none" stroke="#000" stroke-width="1" points="184 245 184 250" opacity="1"/><text x="234" y="255" fill="#000" dy=".76em" font-family="sans-serif" font-size="9.677" opacity="1" text-anchor="middle">40</text><polyline fill="none" stroke="#000" stroke-width="1" points="234 245 234 250" opacity="1"/><text x="284" y="255" fill="#000" dy=".76em" font-family="sans-serif" font-size="9.677" opacity="1" text-anchor="middle">50</text><polyline fill="none" stroke="#000" stroke-width="1" points="284 245 284 250" opacity="1"/><text x="334" y="255" fill="#000" dy=".76em" font-family="sans-serif" font-size="9.677" opacity="1" text-anchor="middle">60</text><polyline fill="none" stroke="#000" stroke-width="1" points="334 245 334 250" opacity="1"/><text x="384" y="255" fill="#000" dy=".76em" font-family="sans-serif" font-size="9.677" opacity="1" text-anchor="middle">70</text><polyline fill="none" stroke="#000" stroke-width="1" points="384 245 384 250" opacity="1"/><text x="434" y="255" fill="#000" dy=".76em" font-family="sans-serif" font-size="9.677" opacity="1" text-anchor="middle">80</text><polyline fill="none" stroke="#000" stroke-width="1" points="434 245 434 250" opacity="1"/><circle cx="75" cy="244" r="3" fill="#1F78B4" stroke="none" stroke-width="1" opacity="1"/><circle cx="114" cy="221" r="3" fill="#1F78B4" stroke="none" stroke-width="1" opacity="1"/><circle cx="154" cy="200" r="3" fill="#1F78B4" stroke="none" stroke-width="1" opacity="1"/><circle cx="194" cy="174" r="3" fill="#1F78B4" stroke="none" stroke-width="1" opacity="1"/><circle cx="234" cy="153" r="3" fill="#1F78B4" stroke="none" stroke-width="1" opacity="1"/><circle cx="274" cy="135" r="3" fill="#1F78B4" stroke="none" stroke-width="1" opacity="1"/><circle cx="314" cy="99" r="3" fill="#1F78B4" stroke="none" stroke-width="1" opacity="1"/><circle cx="354" cy="89" r="3" fill="#1F78B4" stroke="none" stroke-width="1" opacity="1"/><circle cx="394" cy="66" r="3" fill="#1F78B4" stroke="none" stroke-width="1" opacity="1"/><circle cx="434" cy="15" r="3" fill="#1F78B4" stroke="none" stroke-width="1" opacity="1"/><polyline fill="none" stroke="#1F78B4" stroke-width="1" points="75 245 434 33" opacity="1"/><polygon fill="#1F78B4" points="75 245 434 42 434 22" opacity=".25"/></svg>