<svg xmlns="http://www.w3.org/2000/svg" width="450" height="300" viewBox="0 0 450 300"><text x="15" y="130" fill="#000" dy=".76em" font-family="sans-serif" font-size="9.677" opacity="1" text-anchor="middle" transform="rotate(270, 15, 130)">Total sample time (s)</text><text x="255" y="285" fill="#000" dy="-.5ex" font-family="sans-serif" font-size="9.677" opacity="1" text-anchor="middle">Iterations</text><line x1="75" x2="75" y1="244" y2="15" stroke="#000" stroke-width="1" opacity=".2"/><line x1="119" x2="119" y1="244" y2="15" stroke="#000" stroke-width="1" opacity=".2"/><line x1="164" x2="164" y1="244" y2="15" stroke="#000" stroke-width="1" opacity=".2"/><line x1="209" x2="209" y1="244" y2="15" stroke="#000" stroke-width="1" opacity=".2"/><line x1="254" x2="254" y1="244" y2="15" stroke="#000" stroke-width="1" opacity=".2"/><line x1="299" x2="299" y1="244" y2="15" stroke="#000" stroke-width="1" opacity=".2"/><line x1="344" x2="344" y1="244" y2="15" stroke="#000" stroke-width="1" opacity=".2"/><line x1="389" x2="389" y1="244" y2="15" stroke="#000" stroke-width="1" opacity=".2"/><line x1="434" x2="434" y1="244" y2="15" stroke="#000" stroke-width="1" opacity=".2"/><line x1="75" x2="434" y1="244" y2="244" stroke="#000" stroke-width="1" opacity=".2"/><line x1="75" x2="434" y1="221" y2="221" stroke="#000" stroke-width="1" opacity=".2"/><line x1="75" x2="434" y1="198" y2="198" stroke="#000" stroke-width="1" opacity=".2"/><line x1="75" x2="434" y1="175" y2="175" stroke="#000" stroke-width="1" opacity=".2"/><line x1="75" x2="434" y1="152" y2="152" stroke="#000" stroke-width="1" opacity=".2"/><line x1="75" x2="434" y1="129" y2="129" stroke="#000" stroke-width="1" opacity=".2"/><line x1="75" x2="434" y1="106" y2="106" stroke="#000" stroke-width="1" opacity=".2"/><line x1="75" x2="434" y1="83" y2="83" stroke="#000" stroke-width="1" opacity=".2"/><line x1="75" x2="434" y1="60" y2="60" stroke="#000" stroke-width="1" opacity=".2"/><line x1="75" x2="434" y1="37" y2="37" stroke="#000" stroke-width="1" opacity=".2"/><polyline fill="none" stroke="#000" stroke-width="1" points="74 15 74 244" opacity="1"/><text x="65" y="244" fill="#000" dy=".5ex" font-family="sans-serif" font-size="9.677" opacity="1" text-anchor="end">0.0</text><polyline fill="none" stroke="#000" stroke-width="1" points="69 244 74 244" opacity="1"/><text x="65" y="221" fill="#000" dy=".5ex" font-family="sans-serif" font-size="9.677" opacity="1" text-anchor="end">0.1</text><polyline fill="none" stroke="#000" stroke-width="1" points="69 221 74 221" opacity="1"/><text x="65" y="198" fill="#000" dy=".5ex" font-family="sans-serif" font-size="9.677" opacity="1" text-anchor="end">0.2</text><polyline fill="none" stroke="#000" stroke-width="1" points="69 198 74 198" opacity="1"/><text x="65" y="175" fill="#000" dy=".5ex" font-family="sans-serif" font-size="9.677" opacity="1" text-anchor="end">0.3</text><polyline fill="none" stroke="#000" stroke-width="1" points="69 175 74 175" opacity="1"/><text x="65" y="152" fill="#000" dy=".5ex" font-family="sans-serif" font-size="9.677" opacity="1" text-anchor="end">0.4</text><polyline fill="none" stroke="#000" stroke-width="1" points="69 152 74 152" opacity="1"/><text x="65" y="129" fill="#000" dy=".5ex" font-family="sans-serif" font-size="9.677" opacity="1" text-anchor="end">0.5</text><polyline fill="none" stroke="#000" stroke-width="1" points="69 129 74 129" opacity="1"/><text x="65" y="106" fill="#000" dy=".5ex" font-family="sans-serif" font-size="9.677" opacity="1" text-anchor="end">0.6</text><polyline fill="none" stroke="#000" stroke-width="1" points="69 106 74 106" opacity="1"/><text x="65" y="83" fill="#000" dy=".5ex" font-family="sans-serif" font-size="9.677" opacity="1" text-anchor="end">0.7</text><polyline fill="none" stroke="#000" stroke-width="1" points="69 83 74 83" opacity="1"/><text x="65" y="60" fill="#000" dy=".5ex" font-family="sans-serif" font-size="9.677" opacity="1" text-anchor="end">0.8</text><polyline fill="none" stroke="#000" stroke-width="1" points="69 60 74 60" opacity="1"/><text x="65" y="37" fill="#000" dy=".5ex" font-family="sans-serif" font-size="9.677" opacity="1" text-anchor="end">0.9</text><polyline fill="none" stroke="#000" stroke-width="1" points="69 37 74 37" opacity="1"/><polyline fill="none" stroke="#000" stroke-width="1" points="75 245 434 245" opacity="1"/><text x="75" y="255" fill="#000" dy=".76em" font-family="sans-serif" font-size="9.677" opacity="1" text-anchor="middle">0</text><polyline fill="none" stroke="#000" stroke-width="1" points="75 245 75 250" opacity="1"/><text x="119" y="255" fill="#000" dy=".76em" font-family="sans-serif" font-size="9.677" opacity="1" text-anchor="middle">10</text><polyline fill="none" stroke="#000" stroke-width="1" points="119 245 119 250" opacity="1"/><text x="164" y="255" fill="#000" dy=".76em" font-family="sans-serif" font-size="9.677" opacity="1" text-anchor="middle">20</text><polyline fill="none" stroke="#000" stroke-width="1" points="164 245 164 250" opacity="1"/><text x="209" y="255" fill="#000" dy=".76em" font-family="sans-serif" font-size="9.677" opacity="1" text-anchor="middle">30</text><polyline fill="none" stroke="#000" stroke-width="1" points="209 245 209 250" opacity="1"/><text x="254" y="255" fill="#000" dy=".76em" font-family="sans-serif" font-size="9.677" opacity="1" text-anchor="middle">40</text><polyline fill="none" stroke="#000" stroke-width="1" points="254 245 254 250" opacity="1"/><text x="299" y="255" fill="#000" dy=".76em" font-family="sans-serif" font-size="9.677" opacity="1" text-anchor="middle">50</text><polyline fill="none" stroke="#000" stroke-width="1" points="299 245 299 250" opacity="1"/><text x="344" y="255" fill="#000" dy=".76em" font-family="sans-serif" font-size="9.677" opacity="1" text-anchor="middle">60</text><polyline fill="none" stroke="#000" stroke-width="1" points="344 245 344 250" opacity="1"/><text x="389" y="255" fill="#000" dy=".76em" font-family="sans-serif" font-size="9.677" opacity="1" text-anchor="middle">70</text><polyline fill="none" stroke="#000" stroke-width="1" points="389 245 389 250" opacity="1"/><text x="434" y="255" fill="#000" dy=".76em" font-family="sans-serif" font-size="9.677" opacity="1" text-anchor="middle">80</text><polyline fill="none" stroke="#000" stroke-width="1" points="434 245 434 250" opacity="1"/><polyline fill="none" stroke="#E31A1C" stroke-width="1" points="75 244 434 15" opacity="1"/><polygon fill="#E31A1C" points="75 244 434 22 434 15" opacity=".25"/><polyline fill="none" stroke="#1F78B4" stroke-width="1" points="75 244 434 26" opacity="1"/><polygon fill="#1F78B4" points="75 244 434 35 434 17" opacity=".25"/></svg>